<svg xmlns="http://www.w3.org/2000/svg" xmlns:xlink="http://www.w3.org/1999/xlink" width="200" zoomAndPan="magnify" viewBox="0 0 150 74.999997" height="100" preserveAspectRatio="xMidYMid meet" version="1.0"><defs><g/><clipPath id="763054832a"><path d="M 130.355469 15.566406 L 148.234375 15.566406 L 148.234375 33.445312 L 130.355469 33.445312 Z M 130.355469 15.566406 " clip-rule="nonzero"/></clipPath></defs><g fill="#ffffff" fill-opacity="1"><g transform="translate(2.468338, 50.374525)"><g><path d="M 7.90625 -27.734375 L 13.5 -18.28125 L 13.71875 -18.28125 L 19.34375 -27.734375 L 25.96875 -27.734375 L 17.5 -13.875 L 26.15625 0 L 19.40625 0 L 13.71875 -9.46875 L 13.5 -9.46875 L 7.8125 0 L 1.09375 0 L 9.78125 -13.875 L 1.265625 -27.734375 Z M 7.90625 -27.734375 "/></g></g></g><g fill="#ffffff" fill-opacity="1"><g transform="translate(29.721166, 50.374525)"><g><path d="M 8.234375 0.390625 C 6.242188 0.390625 4.59375 -0.125 3.28125 -1.15625 C 1.976562 -2.195312 1.328125 -3.75 1.328125 -5.8125 C 1.328125 -7.363281 1.691406 -8.582031 2.421875 -9.46875 C 3.148438 -10.351562 4.109375 -11 5.296875 -11.40625 C 6.484375 -11.820312 7.765625 -12.09375 9.140625 -12.21875 C 10.941406 -12.394531 12.234375 -12.582031 13.015625 -12.78125 C 13.796875 -12.976562 14.1875 -13.414062 14.1875 -14.09375 L 14.1875 -14.171875 C 14.1875 -15.023438 13.914062 -15.6875 13.375 -16.15625 C 12.832031 -16.625 12.070312 -16.859375 11.09375 -16.859375 C 10.050781 -16.859375 9.222656 -16.632812 8.609375 -16.1875 C 7.992188 -15.738281 7.585938 -15.164062 7.390625 -14.46875 L 2.0625 -14.90625 C 2.457031 -16.800781 3.441406 -18.300781 5.015625 -19.40625 C 6.585938 -20.519531 8.625 -21.078125 11.125 -21.078125 C 12.664062 -21.078125 14.109375 -20.832031 15.453125 -20.34375 C 16.796875 -19.851562 17.878906 -19.09375 18.703125 -18.0625 C 19.535156 -17.03125 19.953125 -15.6875 19.953125 -14.03125 L 19.953125 0 L 14.484375 0 L 14.484375 -2.890625 L 14.3125 -2.890625 C 13.8125 -1.921875 13.054688 -1.128906 12.046875 -0.515625 C 11.035156 0.0859375 9.765625 0.390625 8.234375 0.390625 Z M 9.890625 -3.59375 C 11.148438 -3.59375 12.1875 -3.957031 13 -4.6875 C 13.8125 -5.425781 14.21875 -6.34375 14.21875 -7.4375 L 14.21875 -9.640625 C 14 -9.484375 13.648438 -9.347656 13.171875 -9.234375 C 12.691406 -9.117188 12.179688 -9.015625 11.640625 -8.921875 C 11.109375 -8.835938 10.632812 -8.765625 10.21875 -8.703125 C 9.207031 -8.566406 8.390625 -8.285156 7.765625 -7.859375 C 7.148438 -7.429688 6.84375 -6.8125 6.84375 -6 C 6.84375 -5.207031 7.128906 -4.609375 7.703125 -4.203125 C 8.273438 -3.796875 9.003906 -3.59375 9.890625 -3.59375 Z M 9.890625 -3.59375 "/></g></g></g><g fill="#ffffff" fill-opacity="1"><g transform="translate(51.853925, 50.374525)"><g><path d="M 21.703125 -20.796875 L 14.421875 0 L 7.921875 0 L 0.65625 -20.796875 L 6.75 -20.796875 L 11.0625 -5.921875 L 11.28125 -5.921875 L 15.59375 -20.796875 Z M 21.703125 -20.796875 "/></g></g></g><g fill="#ffffff" fill-opacity="1"><g transform="translate(74.203412, 50.374525)"><g><path d="M 2.296875 0 L 2.296875 -20.796875 L 8.078125 -20.796875 L 8.078125 0 Z M 5.1875 -23.484375 C 4.34375 -23.484375 3.613281 -23.769531 3 -24.34375 C 2.382812 -24.914062 2.078125 -25.601562 2.078125 -26.40625 C 2.078125 -27.207031 2.382812 -27.894531 3 -28.46875 C 3.613281 -29.039062 4.34375 -29.328125 5.1875 -29.328125 C 6.050781 -29.328125 6.789062 -29.039062 7.40625 -28.46875 C 8.019531 -27.894531 8.328125 -27.207031 8.328125 -26.40625 C 8.328125 -25.601562 8.019531 -24.914062 7.40625 -24.34375 C 6.789062 -23.769531 6.050781 -23.484375 5.1875 -23.484375 Z M 5.1875 -23.484375 "/></g></g></g><g fill="#ffffff" fill-opacity="1"><g transform="translate(84.578992, 50.374525)"><g><path d="M 11.78125 0.40625 C 9.65625 0.40625 7.816406 -0.0234375 6.265625 -0.890625 C 4.722656 -1.765625 3.535156 -3.003906 2.703125 -4.609375 C 1.878906 -6.210938 1.46875 -8.113281 1.46875 -10.3125 C 1.46875 -12.445312 1.878906 -14.320312 2.703125 -15.9375 C 3.535156 -17.550781 4.707031 -18.8125 6.21875 -19.71875 C 7.738281 -20.625 9.515625 -21.078125 11.546875 -21.078125 C 13.378906 -21.078125 15.035156 -20.6875 16.515625 -19.90625 C 17.992188 -19.132812 19.164062 -17.960938 20.03125 -16.390625 C 20.894531 -14.828125 21.328125 -12.867188 21.328125 -10.515625 L 21.328125 -8.921875 L 7.171875 -8.921875 L 7.171875 -8.90625 C 7.171875 -7.351562 7.59375 -6.128906 8.4375 -5.234375 C 9.289062 -4.347656 10.4375 -3.90625 11.875 -3.90625 C 12.84375 -3.90625 13.675781 -4.109375 14.375 -4.515625 C 15.082031 -4.921875 15.582031 -5.519531 15.875 -6.3125 L 21.203125 -5.953125 C 20.796875 -4.023438 19.765625 -2.484375 18.109375 -1.328125 C 16.460938 -0.171875 14.351562 0.40625 11.78125 0.40625 Z M 7.171875 -12.5 L 15.90625 -12.5 C 15.894531 -13.738281 15.492188 -14.757812 14.703125 -15.5625 C 13.921875 -16.363281 12.898438 -16.765625 11.640625 -16.765625 C 10.359375 -16.765625 9.304688 -16.347656 8.484375 -15.515625 C 7.671875 -14.691406 7.234375 -13.6875 7.171875 -12.5 Z M 7.171875 -12.5 "/></g></g></g><g fill="#ffffff" fill-opacity="1"><g transform="translate(107.375467, 50.374525)"><g><path d="M 2.296875 0 L 2.296875 -20.796875 L 7.890625 -20.796875 L 7.890625 -17.171875 L 8.109375 -17.171875 C 8.492188 -18.460938 9.128906 -19.441406 10.015625 -20.109375 C 10.898438 -20.773438 11.929688 -21.109375 13.109375 -21.109375 C 13.671875 -21.109375 14.191406 -21.039062 14.671875 -20.90625 C 15.148438 -20.769531 15.578125 -20.582031 15.953125 -20.34375 L 14.21875 -15.578125 C 13.945312 -15.710938 13.648438 -15.828125 13.328125 -15.921875 C 13.015625 -16.015625 12.65625 -16.0625 12.25 -16.0625 C 11.09375 -16.0625 10.109375 -15.664062 9.296875 -14.875 C 8.492188 -14.082031 8.085938 -13.046875 8.078125 -11.765625 L 8.078125 0 Z M 2.296875 0 "/></g></g></g><path stroke-linecap="round" transform="matrix(0.00405435, 0, 0, 0.00405435, 120.758153, 5.969779)" fill="none" stroke-linejoin="round" d="M 3630.278841 3630.109138 L 5513.866789 5513.697086 " stroke="#ffffff" stroke-width="176.38" stroke-opacity="1" stroke-miterlimit="4"/><path stroke-linecap="round" transform="matrix(0.00405435, 0, 0, 0.00405435, 120.758153, 5.969779)" fill="none" stroke-linejoin="round" d="M 5513.866789 3630.109138 L 3630.278841 5513.697086 " stroke="#ffffff" stroke-width="176.38" stroke-opacity="1" stroke-miterlimit="4"/><g clip-path="url(#763054832a)"><path stroke-linecap="round" transform="matrix(0.00405435, 0, 0, 0.00405435, 120.758153, 5.969779)" fill="none" stroke-linejoin="round" d="M 6689.302747 4572.384848 C 6689.302747 4711.12483 6675.814138 4848.90134 6647.873447 4984.750906 C 6620.896228 5121.563943 6581.393872 5253.55962 6527.439435 5381.701409 C 6474.448469 5510.80667 6409.895839 5632.204154 6331.854599 5747.820806 C 6254.776831 5863.437457 6167.100871 5970.38286 6068.826717 6068.657014 C 5970.552563 6166.931168 5863.60716 6254.607129 5747.990509 6332.648368 C 5632.373857 6409.726136 5510.976373 6474.278767 5381.871112 6528.233204 C 5253.729323 6581.224169 5121.733646 6620.726525 4984.920608 6648.667216 C 4849.071043 6675.644435 4711.294533 6689.133044 4571.591079 6689.133044 C 4432.851097 6689.133044 4295.074588 6675.644435 4159.225022 6648.667216 C 4022.411984 6620.726525 3890.416307 6581.224169 3762.274518 6528.233204 C 3633.169257 6474.278767 3511.771773 6409.726136 3396.155122 6332.648368 C 3280.53847 6254.607129 3173.593067 6166.931168 3075.318914 6068.657014 C 2977.04476 5970.38286 2889.368799 5863.437457 2811.327559 5747.820806 C 2734.249791 5632.204154 2669.697161 5510.80667 2615.742724 5381.701409 C 2562.751758 5253.55962 2523.249402 5121.563943 2495.308712 4984.750906 C 2468.331493 4848.90134 2454.842883 4711.12483 2454.842883 4572.384848 C 2454.842883 4432.681394 2468.331493 4294.904885 2495.308712 4159.055319 C 2523.249402 4022.242281 2562.751758 3890.246604 2615.742724 3762.104815 C 2669.697161 3632.999554 2734.249791 3511.60207 2811.327559 3395.985419 C 2889.368799 3280.368767 2977.04476 3173.423364 3075.318914 3075.149211 C 3173.593067 2976.875057 3280.53847 2889.199096 3396.155122 2812.121328 C 3511.771773 2734.080089 3633.169257 2669.527458 3762.274518 2616.536493 C 3890.416307 2562.582055 4022.411984 2523.079699 4159.225022 2496.102481 C 4295.074588 2468.16179 4432.851097 2454.673181 4571.591079 2454.673181 C 4711.294533 2454.673181 4849.071043 2468.16179 4984.920608 2496.102481 C 5121.733646 2523.079699 5253.729323 2562.582055 5381.871112 2616.536493 C 5510.976373 2669.527458 5632.373857 2734.080089 5747.990509 2812.121328 C 5863.60716 2889.199096 5970.552563 2976.875057 6068.826717 3075.149211 C 6167.100871 3173.423364 6254.776831 3280.368767 6331.854599 3395.985419 C 6409.895839 3511.60207 6474.448469 3632.999554 6527.439435 3762.104815 C 6581.393872 3890.246604 6620.896228 4022.242281 6647.873447 4159.055319 C 6675.814138 4294.904885 6689.302747 4432.681394 6689.302747 4572.384848 Z M 6689.302747 4572.384848 " stroke="#ffffff" stroke-width="176.38" stroke-opacity="1" stroke-miterlimit="4"/></g></svg>